<svg width="165" height="134" viewBox="0 0 165 134" fill="none" xmlns="http://www.w3.org/2000/svg">
<path d="M15.5339 97.1131C12.916 97.1131 10.9063 96.646 9.51589 95.7009C8.11457 94.7559 7.07174 93.7022 6.37651 92.5398H5.50748V96.3527H0V58.1914H5.61611V73.1279H6.48514C6.91966 72.4001 7.50625 71.7048 8.23407 71.0313C8.96188 70.3578 9.92867 69.8038 11.1236 69.3693C12.3185 68.9348 13.7959 68.7175 15.5339 68.7175C17.7825 68.7175 19.8573 69.2607 21.7475 70.3578C23.6376 71.4441 25.1476 73.0301 26.2664 75.1049C27.3962 77.1797 27.9611 79.6456 27.9611 82.5134V83.3281C27.9611 86.2394 27.3853 88.7161 26.2447 90.7692C25.1041 92.8223 23.5942 94.3974 21.7258 95.4837C19.8465 96.5591 17.7825 97.1131 15.5339 97.1131ZM13.9045 92.2031C16.3378 92.2031 18.3474 91.421 19.9225 89.8567C21.5085 88.2925 22.2906 86.0547 22.2906 83.1543V82.6655C22.2906 79.7977 21.5085 77.5816 19.9443 76.0174C18.38 74.4531 16.3595 73.671 13.8936 73.671C11.4929 73.671 9.50502 74.4531 7.9299 76.0174C6.34392 77.5816 5.5618 79.7977 5.5618 82.6655V83.1543C5.5618 86.0656 6.35479 88.2925 7.9299 89.8567C9.51588 91.421 11.5038 92.2031 13.9045 92.2031Z" fill="#FFB000"/>
<path d="M121.241 76.3972V69.4775H99.8195V74.2246H115.136V74.985L99.2764 89.487V96.3523H121.241V91.6161H105.327V90.91L121.241 76.3972Z" fill="#FFB000"/>
<path d="M130.158 65.8171C129.072 65.8171 128.149 65.4587 127.41 64.7526C126.66 64.0465 126.291 63.1232 126.291 62.0043C126.291 60.8745 126.66 59.9621 127.41 59.256C128.159 58.5499 129.072 58.1914 130.158 58.1914C131.288 58.1914 132.211 58.5499 132.939 59.256C133.667 59.9621 134.025 60.8854 134.025 62.0043C134.025 63.134 133.667 64.0465 132.939 64.7526C132.211 65.4695 131.288 65.8171 130.158 65.8171ZM127.323 96.3418V69.4671H132.939V96.3418H127.323Z" fill="#FFB000"/>
<path d="M151.515 97.1125C148.788 97.1125 146.409 96.5368 144.378 95.3962C142.346 94.2556 140.75 92.637 139.609 90.5404C138.468 88.4548 137.893 86.0215 137.893 83.2623V82.6105C137.893 79.8079 138.457 77.3746 139.587 75.2781C140.717 73.1924 142.281 71.5739 144.302 70.4224C146.322 69.2818 148.658 68.7061 151.308 68.7061C153.883 68.7061 156.153 69.2818 158.098 70.4224C160.042 71.563 161.563 73.1598 162.649 75.1912C163.735 77.2226 164.289 79.6015 164.289 82.3281V84.4572H143.628C143.704 86.8145 144.486 88.7046 145.996 90.0951C147.506 91.4964 149.386 92.1916 151.634 92.1916C153.742 92.1916 155.327 91.7245 156.403 90.7794C157.478 89.8344 158.304 88.7481 158.88 87.5097L163.507 89.9104C162.997 90.9315 162.258 91.9961 161.302 93.1258C160.335 94.2556 159.075 95.2006 157.511 95.961C155.947 96.7214 153.948 97.1125 151.515 97.1125ZM143.661 80.1555H158.543C158.402 78.1242 157.674 76.5273 156.359 75.3867C155.056 74.2461 153.34 73.6704 151.232 73.6704C149.125 73.6704 147.408 74.2461 146.083 75.3867C144.758 76.5273 143.954 78.1242 143.661 80.1555Z" fill="#FFB000"/>
<path d="M83.5568 60.6997V41.5702L66.9801 32L50.4033 41.5702V60.6997L66.9801 70.2699L83.5568 60.6997Z" fill="#FFB000"/>
<path d="M53.8147 75.3531C52.5111 74.2125 50.8057 73.6367 48.6983 73.6367C46.5909 73.6367 44.8854 74.2125 43.5601 75.3531C42.2349 76.4937 41.431 78.0796 41.1377 80.111H55.9873C55.846 78.0796 55.1291 76.4937 53.8147 75.3531Z" fill="#FFB000"/>
<path d="M82.7204 97.0249C80.0047 97.0249 77.6258 96.4491 75.5944 95.3085C73.563 94.1679 71.9771 92.5493 70.8365 90.4637C69.6958 88.378 69.1201 85.9556 69.1201 83.2073V82.5555C69.1201 79.7637 69.685 77.3305 70.8039 75.2448C71.9227 73.1591 73.4979 71.5514 75.5075 70.3999C77.5171 69.2593 79.8526 68.6836 82.4923 68.6836C85.0668 68.6836 87.3263 69.2593 89.2599 70.3999C91.2044 71.5405 92.7143 73.1265 93.8006 75.1579C94.8869 77.1892 95.43 79.5682 95.43 82.2839V84.4022H74.834C74.91 86.7594 75.6922 88.6387 77.2021 90.0292C78.7012 91.4305 80.5805 92.1257 82.8291 92.1257C84.9365 92.1257 86.5224 91.6586 87.587 90.7135C88.6516 89.7685 89.4772 88.6822 90.0638 87.4547L94.6913 89.8445C94.1808 90.8547 93.453 91.9302 92.4862 93.049C91.5302 94.1679 90.2593 95.113 88.7059 95.8734C87.1416 96.6447 85.1537 97.0249 82.7204 97.0249ZM74.8883 80.1113H89.7379C89.5966 78.08 88.8688 76.494 87.5653 75.3534C86.2617 74.2128 84.5563 73.6371 82.4489 73.6371C80.3415 73.6371 78.636 74.2128 77.3107 75.3534C75.9855 76.494 75.1816 78.08 74.8883 80.1113Z" fill="#FFB000"/>
<path d="M48.5465 63.709L31.9697 73.2792V92.4196L42.6371 98.5788L46.765 100.969L48.5465 102.001L50.3171 100.98L55.0425 98.2312L65.1015 92.4196V73.2792L48.5465 63.709ZM61.7123 84.4028H41.0945C41.1706 86.76 41.9527 88.6393 43.4627 90.0297C44.9617 91.4311 46.841 92.1263 49.0896 92.1263C51.197 92.1263 52.783 91.6483 53.8476 90.7141C54.923 89.769 55.7377 88.6828 56.3243 87.4552L60.941 89.8451C60.4305 90.8662 59.7027 91.9308 58.7359 93.0605C57.7691 94.1794 56.509 95.1244 54.9556 95.8848C53.3913 96.6452 51.4034 97.0254 48.9701 97.0254C46.2544 97.0254 43.8754 96.4606 41.8441 95.3091C39.8127 94.1685 38.2267 92.5499 37.0861 90.4643C35.9455 88.3786 35.3698 85.9562 35.3698 83.2079V82.5561C35.3698 79.7643 35.9347 77.331 37.0536 75.2345C38.1724 73.1488 39.7475 71.5411 41.7572 70.3897C43.7777 69.249 46.1023 68.6733 48.7529 68.6733C51.3274 68.6733 53.576 69.2382 55.5205 70.3897C57.4649 71.5303 58.9748 73.1162 60.0611 75.1476C61.1474 77.179 61.6906 79.5579 61.6906 82.2736V84.4028H61.7123Z" fill="#FFB000"/>
</svg>
